<svg width="16" height="16" viewBox="0 0 16 16" fill="none" xmlns="http://www.w3.org/2000/svg">
<g clip-path="url(#clip0_1020_2103)">
<path d="M13.3337 6.66671C13.3337 9.99537 9.64099 13.462 8.40099 14.5327C8.28548 14.6196 8.14486 14.6665 8.00033 14.6665C7.85579 14.6665 7.71518 14.6196 7.59966 14.5327C6.35966 13.462 2.66699 9.99537 2.66699 6.66671C2.66699 5.25222 3.2289 3.89567 4.22909 2.89547C5.22928 1.89528 6.58584 1.33337 8.00033 1.33337C9.41481 1.33337 10.7714 1.89528 11.7716 2.89547C12.7718 3.89567 13.3337 5.25222 13.3337 6.66671Z" stroke="#364153" stroke-width="1.33333" stroke-linecap="round" stroke-linejoin="round"/>
<path d="M8 8.66663C9.10457 8.66663 10 7.7712 10 6.66663C10 5.56206 9.10457 4.66663 8 4.66663C6.89543 4.66663 6 5.56206 6 6.66663C6 7.7712 6.89543 8.66663 8 8.66663Z" stroke="#364153" stroke-width="1.33333" stroke-linecap="round" stroke-linejoin="round"/>
</g>
<defs>
<clipPath id="clip0_1020_2103">
<rect width="16" height="16" fill="white"/>
</clipPath>
</defs>
</svg>
