<svg width="16" height="16" viewBox="0 0 16 16" fill="none" xmlns="http://www.w3.org/2000/svg">
<g clip-path="url(#clip0_1020_2110)">
<path d="M6.8457 14C6.96273 14.2027 7.13105 14.371 7.33373 14.488C7.53642 14.605 7.76633 14.6666 8.00037 14.6666C8.23441 14.6666 8.46432 14.605 8.66701 14.488C8.86969 14.371 9.03801 14.2027 9.15504 14" stroke="#364153" stroke-width="1.33333" stroke-linecap="round" stroke-linejoin="round"/>
<path d="M2.17418 10.2173C2.08709 10.3127 2.02962 10.4314 2.00875 10.5589C1.98788 10.6864 2.00453 10.8173 2.05665 10.9355C2.10878 11.0538 2.19414 11.1543 2.30235 11.2249C2.41056 11.2955 2.53697 11.3332 2.66618 11.3333H13.3328C13.462 11.3333 13.5885 11.2958 13.6968 11.2253C13.805 11.1548 13.8905 11.0544 13.9428 10.9363C13.995 10.8181 14.0118 10.6873 13.9911 10.5598C13.9704 10.4322 13.9131 10.3135 13.8262 10.2179C12.9395 9.30392 11.9995 8.33259 11.9995 5.33325C11.9995 4.27239 11.5781 3.25497 10.8279 2.50482C10.0778 1.75468 9.06038 1.33325 7.99951 1.33325C6.93865 1.33325 5.92123 1.75468 5.17109 2.50482C4.42094 3.25497 3.99951 4.27239 3.99951 5.33325C3.99951 8.33259 3.05885 9.30392 2.17418 10.2173Z" stroke="#364153" stroke-width="1.33333" stroke-linecap="round" stroke-linejoin="round"/>
</g>
<defs>
<clipPath id="clip0_1020_2110">
<rect width="16" height="16" fill="white"/>
</clipPath>
</defs>
</svg>
