<svg width="64" height="77" viewBox="0 0 64 77" fill="none" xmlns="http://www.w3.org/2000/svg">
<g clip-path="url(#clip0_692_21997)">
<path d="M32 75.7293C49.0863 75.7293 62.9375 59.0612 62.9375 38.5002C62.9375 17.9391 49.0863 1.271 32 1.271C14.9137 1.271 1.0625 17.9391 1.0625 38.5002C1.0625 59.0612 14.9137 75.7293 32 75.7293Z" fill="url(#paint0_linear_692_21997)"/>
</g>
<g clip-path="url(#clip1_692_21997)">
<path d="M32.0003 19.25L18.667 32.0833V51.3333C18.667 53.1052 19.861 54.5417 21.3337 54.5417H29.3337V44.9167C29.3337 43.1448 30.5276 41.7083 32.0003 41.7083C33.4731 41.7083 34.667 43.1448 34.667 44.9167V54.5417H42.6669C44.1397 54.5417 45.3337 53.1052 45.3337 51.3333V32.0833L32.0003 19.25Z" fill="white"/>
</g>
<g clip-path="url(#clip2_692_21997)">
<path d="M41.6043 23.729C40.4226 23.729 39.4654 24.882 39.4654 26.3053C39.4654 26.8722 39.6205 27.3874 39.8825 27.7932L38.396 29.5838V31.4582H39.9521L41.4386 29.6675C41.7754 29.9832 42.2032 30.1699 42.6737 30.1699C43.8555 30.1699 44.8127 29.0171 44.8127 27.5936C44.8127 26.1701 43.8555 25.0172 42.6737 25.0172V26.3053C43.262 26.3053 43.7432 26.885 43.7432 27.5936C43.7432 28.3021 43.262 28.8817 42.6737 28.8817C42.0856 28.8817 41.6043 28.3021 41.6043 27.5936H40.5349C40.5349 29.0171 41.4921 30.1699 42.6737 30.1699" fill="#EF5350"/>
</g>
<g clip-path="url(#clip3_692_21997)">
<path d="M41.6043 23.7441C40.4256 23.7441 39.4709 24.8927 39.4709 26.3107C39.4709 26.8754 39.6256 27.3887 39.8869 27.793L38.4043 29.5768V31.4441H39.9563L41.439 29.6602C41.7749 29.9747 42.2017 30.1607 42.6709 30.1607M42.6709 30.1607C43.8496 30.1607 44.8043 29.0122 44.8043 27.5941C44.8043 26.176 43.8496 25.0274 42.6709 25.0274V26.3107C43.2577 26.3107 43.7377 26.8882 43.7377 27.5941C43.7377 28.2999 43.2577 28.8774 42.6709 28.8774C42.0843 28.8774 41.6043 28.2999 41.6043 27.5941H40.5377C40.5377 29.0122 41.4923 30.1607 42.6709 30.1607Z" stroke="#EF5350" stroke-width="0.292499"/>
</g>
<g clip-path="url(#clip4_692_21997)">
<path d="M24.0003 36.9167C24.7367 36.9167 25.3337 36.1938 25.3337 35.3021C25.3337 34.4104 24.7367 33.6875 24.0003 33.6875C23.2639 33.6875 22.667 34.4104 22.667 35.3021C22.667 36.1938 23.2639 36.9167 24.0003 36.9167Z" fill="#43A047"/>
</g>
<g clip-path="url(#clip5_692_21997)">
<path d="M40.0003 36.9167C40.7367 36.9167 41.3337 36.1938 41.3337 35.3021C41.3337 34.4104 40.7367 33.6875 40.0003 33.6875C39.2639 33.6875 38.667 34.4104 38.667 35.3021C38.667 36.1938 39.2639 36.9167 40.0003 36.9167Z" fill="#EF5350"/>
</g>
<g clip-path="url(#clip6_692_21997)">
<path d="M32.0003 32.4167C32.7367 32.4167 33.3337 31.6938 33.3337 30.8021C33.3337 29.9103 32.7367 29.1875 32.0003 29.1875C31.2639 29.1875 30.667 29.9103 30.667 30.8021C30.667 31.6938 31.2639 32.4167 32.0003 32.4167Z" fill="#66BB6A"/>
</g>
<defs>
<linearGradient id="paint0_linear_692_21997" x1="1.0625" y1="1.271" x2="7321.11" y2="6084.24" gradientUnits="userSpaceOnUse">
<stop stop-color="#2E7D32"/>
<stop offset="1" stop-color="#1B5E20"/>
</linearGradient>
<clipPath id="clip0_692_21997">
<rect width="61.875" height="74.4583" fill="white" transform="translate(1.0625 1.271)"/>
</clipPath>
<clipPath id="clip1_692_21997">
<rect width="26.6667" height="35.2917" fill="white" transform="translate(18.667 19.25)"/>
</clipPath>
<clipPath id="clip2_692_21997">
<rect width="6.41667" height="7.72917" fill="white" transform="translate(38.396 23.729)"/>
</clipPath>
<clipPath id="clip3_692_21997">
<rect width="6.66667" height="8.02083" fill="white" transform="translate(38.271 23.5835)"/>
</clipPath>
<clipPath id="clip4_692_21997">
<rect width="2.66667" height="3.22917" fill="white" transform="translate(22.667 33.6875)"/>
</clipPath>
<clipPath id="clip5_692_21997">
<rect width="2.66667" height="3.22917" fill="white" transform="translate(38.667 33.6875)"/>
</clipPath>
<clipPath id="clip6_692_21997">
<rect width="2.66667" height="3.22917" fill="white" transform="translate(30.667 29.1875)"/>
</clipPath>
</defs>
</svg>
